<svg width="21" height="21" viewBox="0 0 21 21" fill="none" xmlns="http://www.w3.org/2000/svg">
<path d="M16.7363 6.57324V4.55762H4.73633V6.57324H16.7363ZM12.752 12.5732V10.5576H4.73633V12.5732H12.752ZM4.73633 7.55762V9.57324H16.7363V7.55762H4.73633ZM18.752 0.573242C19.2832 0.573242 19.7363 0.776367 20.1113 1.18262C20.5176 1.55762 20.7207 2.01074 20.7207 2.54199V14.542C20.7207 15.0732 20.5176 15.542 20.1113 15.9482C19.7363 16.3545 19.2832 16.5576 18.752 16.5576H4.73633L0.751953 20.542V2.54199C0.751953 2.01074 0.939453 1.55762 1.31445 1.18262C1.7207 0.776367 2.18945 0.573242 2.7207 0.573242H18.752Z" fill="#1F2041" fill-opacity="0.5"/>
</svg>
