<svg width="21" height="21" viewBox="0 0 21 21" fill="none" xmlns="http://www.w3.org/2000/svg">
<path d="M11.252 5.54199V10.792L15.752 13.4639L15.002 14.7295L9.75195 11.542V5.54199H11.252ZM5.06445 16.2295C6.6582 17.792 8.54883 18.5732 10.7363 18.5732C12.9238 18.5732 14.7988 17.792 16.3613 16.2295C17.9551 14.6357 18.752 12.7451 18.752 10.5576C18.752 8.37012 17.9551 6.49512 16.3613 4.93262C14.7988 3.33887 12.9238 2.54199 10.7363 2.54199C8.54883 2.54199 6.6582 3.33887 5.06445 4.93262C3.50195 6.49512 2.7207 8.37012 2.7207 10.5576C2.7207 12.7451 3.50195 14.6357 5.06445 16.2295ZM3.6582 3.52637C5.62695 1.55762 7.98633 0.573242 10.7363 0.573242C13.4863 0.573242 15.8301 1.55762 17.7676 3.52637C19.7363 5.46387 20.7207 7.80762 20.7207 10.5576C20.7207 13.3076 19.7363 15.667 17.7676 17.6357C15.8301 19.5732 13.4863 20.542 10.7363 20.542C7.98633 20.542 5.62695 19.5732 3.6582 17.6357C1.7207 15.667 0.751953 13.3076 0.751953 10.5576C0.751953 7.80762 1.7207 5.46387 3.6582 3.52637Z" fill="#1F2041" fill-opacity="0.5"/>
</svg>
